<svg xmlns="http://www.w3.org/2000/svg" width="21" height="21" viewBox="0 0 21 21">
  <path id="Icon_awesome-pencil-alt" data-name="Icon awesome-pencil-alt" d="M20.423,5.831,18.533,7.722a.493.493,0,0,1-.7,0L13.282,3.169a.492.492,0,0,1,0-.7L15.173.581a1.973,1.973,0,0,1,2.785,0l2.465,2.465A1.966,1.966,0,0,1,20.423,5.831ZM11.658,4.1.887,14.867.017,19.85a.986.986,0,0,0,1.141,1.14l4.983-.874L16.912,9.346a.493.493,0,0,0,0-.7L12.359,4.1a.5.5,0,0,0-.7,0ZM5.091,13.944a.572.572,0,0,1,0-.812l6.317-6.317a.574.574,0,0,1,.812.812L5.9,13.944A.572.572,0,0,1,5.091,13.944ZM3.61,17.394H5.579v1.489l-2.645.463L1.658,18.07l.464-2.646H3.61Z" transform="translate(-0.002 -0.005)"/>
</svg>
