<svg xmlns="http://www.w3.org/2000/svg" width="70" height="450" viewBox="0 0 70 450">
  <path id="fork" d="M265.27,0c-2.612,0-4.73,2.957-4.73,6.6V98.19c0,4.127-2.4,7.485-5.36,7.485s-5.36-3.358-5.36-7.485V6.6c0-3.648-2.118-6.6-4.73-6.6s-4.73,2.957-4.73,6.6V98.19c0,4.127-2.4,7.485-5.36,7.485s-5.36-3.358-5.36-7.485V6.6c0-3.648-2.118-6.6-4.73-6.6s-4.73,2.957-4.73,6.6V98.19c0,4.127-2.4,7.485-5.36,7.485s-5.36-3.358-5.36-7.485V6.6c0-3.648-2.118-6.6-4.73-6.6S200,2.957,200,6.6V129c0,13.846,8.067,25.111,18,25.111a4.747,4.747,0,0,1,3.867,2.3,9.252,9.252,0,0,1,1.489,5.489l-7.6,260.109a33.26,33.26,0,0,0,5.35,19.723c3.666,5.332,8.6,8.269,13.894,8.269s10.228-2.937,13.893-8.269a33.256,33.256,0,0,0,5.35-19.722L246.64,161.9a9.26,9.26,0,0,1,1.489-5.489,4.752,4.752,0,0,1,3.888-2.3C261.933,154.11,270,142.845,270,129V6.6C270,2.957,267.882,0,265.27,0Zm-23.2,432.583c-1.865,2.714-4.376,4.208-7.07,4.208s-5.2-1.494-7.069-4.208a16.918,16.918,0,0,1-2.722-10.036l4.962-169.808h9.657l4.963,169.808A16.921,16.921,0,0,1,242.07,432.583ZM252,140.9c-4.073,0-7.87,2.26-10.691,6.363a25.591,25.591,0,0,0-4.117,15.176l2.254,77.092h-8.885l2.253-77.092a25.591,25.591,0,0,0-4.117-15.176c-2.821-4.1-6.618-6.363-10.712-6.363-4.7,0-8.523-5.339-8.523-11.9V117.477a11.156,11.156,0,0,0,5.36,1.406c3.9,0,7.442-2.113,10.09-5.557,2.648,3.444,6.195,5.557,10.09,5.557s7.442-2.113,10.09-5.557c2.648,3.444,6.195,5.557,10.09,5.557a11.156,11.156,0,0,0,5.36-1.406V129C260.541,135.562,256.718,140.9,252,140.9Z" transform="translate(-200)"/>
</svg>
