<svg xmlns="http://www.w3.org/2000/svg" width="80" height="450" viewBox="0 0 80 450">
  <path id="spoon" d="M240.312,29.27C232.753,10.395,222.486,0,211.4,0s-21.353,10.395-28.912,29.27C175.338,47.125,171.4,70.721,171.4,95.712c0,40.56,10.245,75.727,25.775,89.586l-5.15,233.166c-.183,8.336,1.746,16.232,5.432,22.232s8.638,9.3,13.943,9.3,10.257-3.3,13.943-9.3,5.615-13.894,5.432-22.233l-5.149-233.148c5.912-5.293,11.229-13.9,15.53-25.332,6.606-17.564,10.245-40.388,10.245-64.27C251.4,70.721,247.463,47.125,240.312,29.27ZM233.39,152.761c-3.859,10.26-8.579,17.572-13.684,21.4a4,4,0,0,0-1.06.75,14.05,14.05,0,0,1-5.327,2.167c-2.478.411-4.274,3.9-4.012,7.8.245,3.643,2.2,6.349,4.481,6.349a2.958,2.958,0,0,0,.48-.041,18.387,18.387,0,0,0,2.447-.59l5.044,228.358a22.027,22.027,0,0,1-2.9,11.885c-1.971,3.207-4.618,4.974-7.454,4.974s-5.483-1.766-7.454-4.974a22.028,22.028,0,0,1-2.9-11.884l5.252-237.766c.072-3.284-1.288-6.115-3.2-7.026-13.375-10.037-22.674-42.089-22.674-78.451,0-22.351,3.445-43.263,9.7-58.884,5.848-14.6,13.4-22.642,21.277-22.642s15.43,8.041,21.277,22.642c6.256,15.621,9.7,36.532,9.7,58.884C242.377,117.091,239.186,137.352,233.39,152.761Zm4.777-54.213c0,3.918-2.02,7.093-4.511,7.093s-4.511-3.175-4.511-7.093c0-1.87-.03-3.758-.089-5.612-.125-3.913,1.792-7.243,4.28-7.439,2.483-.222,4.607,2.817,4.731,6.729C238.133,94.317,238.167,96.444,238.167,98.549ZM231,75.118c-1.954,0-3.755-2.012-4.329-5.11-3.51-18.933-10.212-31.166-17.076-31.166-2.491,0-4.511-3.175-4.511-7.093s2.02-7.093,4.511-7.093c11.144,0,21.006,15.858,25.738,41.383.7,3.761-.677,7.7-3.069,8.795A3.028,3.028,0,0,1,231,75.118Z" transform="translate(251.4 450) rotate(180)"/>
</svg>
