<?xml version="1.0" encoding="iso-8859-1"?>
<!-- Generator: Adobe Illustrator 16.0.0, SVG Export Plug-In . SVG Version: 6.00 Build 0)  -->
<!DOCTYPE svg PUBLIC "-//W3C//DTD SVG 1.1//EN" "http://www.w3.org/Graphics/SVG/1.1/DTD/svg11.dtd">
<svg xmlns="http://www.w3.org/2000/svg" xmlns:xlink="http://www.w3.org/1999/xlink" width="50" height="50" viewBox="0 0 50 50">
  <defs>
    <clipPath id="clip-path">
      <circle id="Ellipse_7" data-name="Ellipse 7" cx="25" cy="25" r="25" fill="#fff" stroke="#707070" stroke-width="1"/>
    </clipPath>
  </defs>
  <g id="Groupe_de_masques_1" data-name="Groupe de masques 1" clip-path="url(#clip-path)">
    <g id="dont-touch">
      <g id="Groupe_1" data-name="Groupe 1">
        <path id="Tracé_7" data-name="Tracé 7" d="M25,50A25,25,0,1,1,50,25,25.028,25.028,0,0,1,25,50ZM25,1.563A23.438,23.438,0,1,0,48.438,25,23.464,23.464,0,0,0,25,1.563Z"/>
      </g>
      <g id="Groupe_2" data-name="Groupe 2" transform="translate(2.344 2.344)">
        <path id="Tracé_8" data-name="Tracé 8" d="M25,47.656A22.656,22.656,0,1,1,47.656,25,22.683,22.683,0,0,1,25,47.656Zm0-43.75A21.094,21.094,0,1,0,46.094,25,21.117,21.117,0,0,0,25,3.906Z" transform="translate(-2.344 -2.344)"/>
      </g>
      <g id="Groupe_3" data-name="Groupe 3" transform="translate(8.751 8.751)">
        <path id="Tracé_9" data-name="Tracé 9" d="M9.532,41.249a.781.781,0,0,1-.552-1.334L39.916,8.98a.781.781,0,0,1,1.1,1.1L10.084,41.02a.779.779,0,0,1-.552.229Z" transform="translate(-8.751 -8.751)"/>
      </g>
      <g id="Groupe_22" data-name="Groupe 22" transform="translate(11.716 7.029)">
        <g id="Groupe_19" data-name="Groupe 19">
          <g id="Groupe_4" data-name="Groupe 4" transform="translate(17.97 6.268)">
            <path id="Tracé_10" data-name="Tracé 10" d="M34.373,16.812a.781.781,0,0,1-.781-.781,1.172,1.172,0,0,0-2.344,0,.781.781,0,0,1-1.562,0,2.734,2.734,0,0,1,5.469,0A.781.781,0,0,1,34.373,16.812Z" transform="translate(-29.686 -13.297)"/>
          </g>
          <g id="Groupe_5" data-name="Groupe 5" transform="translate(14.063 2.344)">
            <path id="Tracé_11" data-name="Tracé 11" d="M30.467,12.888a.781.781,0,0,1-.781-.781,1.172,1.172,0,0,0-2.344,0,.781.781,0,0,1-1.562,0,2.734,2.734,0,0,1,5.469,0A.781.781,0,0,1,30.467,12.888Z" transform="translate(-25.78 -9.373)"/>
          </g>
          <g id="Groupe_6" data-name="Groupe 6" transform="translate(6.251 2.344)">
            <path id="Tracé_12" data-name="Tracé 12" d="M22.655,12.888a.781.781,0,0,1-.781-.781,1.172,1.172,0,0,0-2.344,0,.781.781,0,0,1-1.562,0,2.734,2.734,0,0,1,5.469,0A.781.781,0,0,1,22.655,12.888Z" transform="translate(-17.967 -9.373)"/>
          </g>
          <g id="Groupe_7" data-name="Groupe 7" transform="translate(10.157)">
            <path id="Tracé_13" data-name="Tracé 13" d="M26.561,10.545a.781.781,0,0,1-.781-.781,1.172,1.172,0,1,0-2.344,0,.781.781,0,1,1-1.562,0,2.734,2.734,0,1,1,5.469,0A.781.781,0,0,1,26.561,10.545Z" transform="translate(-21.873 -7.029)"/>
          </g>
          <g id="Groupe_8" data-name="Groupe 8" transform="translate(18.751 24.22)">
            <path id="Tracé_14" data-name="Tracé 14" d="M31.249,38.282a.781.781,0,0,1-.4-1.455,5.566,5.566,0,0,0,2.738-4.8.781.781,0,0,1,1.563,0,7.135,7.135,0,0,1-3.512,6.145.778.778,0,0,1-.394.107Z" transform="translate(-30.468 -31.249)"/>
          </g>
          <g id="Groupe_9" data-name="Groupe 9" transform="translate(21.876 8.22)">
            <path id="Tracé_15" data-name="Tracé 15" d="M34.373,32.812a.781.781,0,0,1-.781-.781v-16a.781.781,0,0,1,1.563,0v16A.781.781,0,0,1,34.373,32.812Z" transform="translate(-33.592 -15.249)"/>
          </g>
          <g id="Groupe_10" data-name="Groupe 10" transform="translate(17.97 4.297)">
            <path id="Tracé_16" data-name="Tracé 16" d="M30.467,23.436a.781.781,0,0,1-.781-.781V12.107a.781.781,0,0,1,1.563,0V22.655A.781.781,0,0,1,30.467,23.436Z" transform="translate(-29.686 -11.326)"/>
          </g>
          <g id="Groupe_11" data-name="Groupe 11" transform="translate(14.063 1.953)">
            <path id="Tracé_17" data-name="Tracé 17" d="M26.561,23.436a.781.781,0,0,1-.781-.781V9.763a.781.781,0,1,1,1.563,0V22.655A.781.781,0,0,1,26.561,23.436Z" transform="translate(-25.78 -8.982)"/>
          </g>
          <g id="Groupe_12" data-name="Groupe 12" transform="translate(10.157 1.953)">
            <path id="Tracé_18" data-name="Tracé 18" d="M22.655,23.436a.781.781,0,0,1-.781-.781V9.763a.781.781,0,0,1,1.563,0V22.655A.781.781,0,0,1,22.655,23.436Z" transform="translate(-21.873 -8.982)"/>
          </g>
          <g id="Groupe_13" data-name="Groupe 13" transform="translate(6.251 4.297)">
            <path id="Tracé_19" data-name="Tracé 19" d="M18.748,27.345a.781.781,0,0,1-.781-.781V12.107a.781.781,0,0,1,1.563,0V26.563A.781.781,0,0,1,18.748,27.345Z" transform="translate(-17.967 -11.326)"/>
          </g>
          <g id="Groupe_14" data-name="Groupe 14" transform="translate(0 15.627)">
            <path id="Tracé_20" data-name="Tracé 20" d="M12.784,27.19a.78.78,0,0,1-.667-.374A2.735,2.735,0,0,1,16.094,23.2a.781.781,0,1,1-.94,1.248A1.172,1.172,0,0,0,13.451,26a.779.779,0,0,1-.259,1.073.766.766,0,0,1-.408.116Z" transform="translate(-11.716 -22.655)"/>
          </g>
          <g id="Groupe_15" data-name="Groupe 15" transform="translate(3.216 16.09)">
            <path id="Tracé_21" data-name="Tracé 21" d="M18.748,27.345a.779.779,0,0,1-.515-.194L15.2,24.487a.781.781,0,0,1,1.03-1.175l3.035,2.663a.781.781,0,0,1-.515,1.369Z" transform="translate(-14.932 -23.119)"/>
          </g>
          <g id="Groupe_18" data-name="Groupe 18" transform="translate(0.248 18.53)">
            <g id="Groupe_16" data-name="Groupe 16" transform="translate(6.334 8.382)">
              <path id="Tracé_22" data-name="Tracé 22" d="M21.882,38.287a.784.784,0,0,1-.419-.122,10.524,10.524,0,0,1-3.029-3,.781.781,0,1,1,1.291-.879A8.974,8.974,0,0,0,22.3,36.846a.781.781,0,0,1-.421,1.441Z" transform="translate(-18.298 -33.94)"/>
            </g>
            <g id="Groupe_17" data-name="Groupe 17">
              <path id="Tracé_23" data-name="Tracé 23" d="M19.08,35.5a.78.78,0,0,1-.624-.31l-6.334-8.382a.781.781,0,1,1,1.246-.941L19.7,34.252a.78.78,0,0,1-.152,1.094A.769.769,0,0,1,19.08,35.5Z" transform="translate(-11.965 -25.559)"/>
            </g>
          </g>
        </g>
        <g id="Groupe_20" data-name="Groupe 20" transform="translate(9.385 29.695)">
          <path id="Tracé_24" data-name="Tracé 24" d="M21.883,41.4a.781.781,0,0,1-.781-.781V37.505a.781.781,0,0,1,1.563,0v3.118A.781.781,0,0,1,21.883,41.4Z" transform="translate(-21.102 -36.724)"/>
        </g>
        <g id="Groupe_21" data-name="Groupe 21" transform="translate(18.751 29.691)">
          <path id="Tracé_25" data-name="Tracé 25" d="M31.248,41.275a.781.781,0,0,1-.781-.781V37.5a.781.781,0,0,1,1.563,0v2.993A.781.781,0,0,1,31.248,41.275Z" transform="translate(-30.467 -36.72)"/>
        </g>
      </g>
      <g id="Groupe_23" data-name="Groupe 23" transform="translate(19.531 39.842)">
        <path id="Tracé_26" data-name="Tracé 26" d="M32.814,41.4h-12.5a.781.781,0,1,1,0-1.562h12.5a.781.781,0,0,1,0,1.563Z" transform="translate(-19.531 -39.842)"/>
      </g>
      <g id="Groupe_24" data-name="Groupe 24" transform="translate(19.531 39.842)">
        <path id="Tracé_27" data-name="Tracé 27" d="M20.313,47.152a.781.781,0,0,1-.781-.781V40.623a.781.781,0,0,1,1.563,0v5.748A.781.781,0,0,1,20.313,47.152Z" transform="translate(-19.531 -39.842)"/>
      </g>
      <g id="Groupe_25" data-name="Groupe 25" transform="translate(32.033 39.842)">
        <path id="Tracé_28" data-name="Tracé 28" d="M32.814,46.219a.781.781,0,0,1-.781-.781V40.623a.781.781,0,0,1,1.563,0v4.814A.781.781,0,0,1,32.814,46.219Z" transform="translate(-32.033 -39.842)"/>
      </g>
    </g>
  </g>
</svg>